<svg width="512" height="512" viewBox="0 0 512 512" fill="none" xmlns="http://www.w3.org/2000/svg">
<g clip-path="url(#clip0_9_7288)">
<path d="M255.997 -5.16494e-06C288.624 -2.31259e-06 315.077 26.453 315.077 59.08L315.077 452.923C315.077 485.55 288.624 512 255.997 512C223.37 512 196.92 485.55 196.92 452.923L196.92 59.08C196.92 26.452 223.37 -8.01728e-06 255.997 -5.16494e-06Z" fill="#E63838"/>
<path d="M59.0743 196.925C74.1933 196.925 89.3153 202.69 100.843 214.226L255.994 369.372L411.146 214.226C434.214 191.153 471.623 191.153 494.692 214.226C517.765 237.299 517.765 274.703 494.692 297.777L297.772 494.695C274.704 517.768 237.295 517.768 214.229 494.695L17.3043 297.775C-5.76666 274.702 -5.76665 237.298 17.3043 214.224C28.8413 202.691 43.9603 196.925 59.0743 196.925Z" fill="#E63838"/>
</g>
<defs>
<clipPath id="clip0_9_7288">
<rect width="512" height="512" fill="white"/>
</clipPath>
</defs>
</svg>
