<svg width="24" height="31" viewBox="0 0 24 31" fill="none" xmlns="http://www.w3.org/2000/svg">
<g clip-path="url(#clip0_5_7293)">
<path d="M20.0939 11.108L18.7444 14.0341H0.0654297L1.13077 11.108H20.0939ZM17.5512 16.875L16.1734 19.8295H0.0654297L1.13077 16.875H17.5512ZM23.5598 3.39488L21.8836 6.98863C21.3533 6.53408 20.7757 6.12215 20.1507 5.75283C19.5257 5.38351 18.8533 5.08995 18.1336 4.87215C17.4139 4.64488 16.6421 4.53124 15.8183 4.53124C14.3031 4.53124 12.9537 4.93844 11.77 5.75283C10.5863 6.56722 9.6535 7.78881 8.97168 9.4176C8.29933 11.0369 7.96316 13.054 7.96316 15.4688C7.96316 17.8835 8.29933 19.9006 8.97168 21.5199C9.6535 23.1392 10.5863 24.3561 11.77 25.1705C12.9537 25.9754 14.3031 26.3778 15.8183 26.3778C16.6516 26.3778 17.4281 26.2689 18.1478 26.0511C18.877 25.8333 19.5399 25.5492 20.1365 25.1989C20.7425 24.839 21.287 24.4602 21.77 24.0625L23.4887 27.642C22.4849 28.5511 21.3202 29.2377 19.9944 29.7017C18.6687 30.1657 17.2766 30.3977 15.8183 30.3977C13.4414 30.3977 11.3344 29.7964 9.49725 28.5938C7.6696 27.3911 6.23494 25.6771 5.19327 23.4517C4.15161 21.2169 3.63077 18.5559 3.63077 15.4688C3.63077 12.3722 4.15161 9.70643 5.19327 7.47158C6.23494 5.23673 7.6696 3.51798 9.49725 2.31533C11.3344 1.11268 13.4414 0.511353 15.8183 0.511353C17.3334 0.511353 18.7444 0.762298 20.0512 1.26419C21.3581 1.75662 22.5276 2.46685 23.5598 3.39488Z" fill="white"/>
</g>
<defs>
<clipPath id="clip0_5_7293">
<rect width="24" height="31" fill="white"/>
</clipPath>
</defs>
</svg>
