<svg width="26" height="30" viewBox="0 0 26 30" fill="none" xmlns="http://www.w3.org/2000/svg">
<g clip-path="url(#clip0_5_7295)">
<path d="M15.6197 18.6081H0.605469V14.8865H15.5629C16.8508 14.8865 17.9161 14.6734 18.7589 14.2473C19.6017 13.8117 20.2267 13.2151 20.6339 12.4575C21.0411 11.6904 21.2447 10.8098 21.2447 9.81543C21.2447 8.83058 21.0411 7.9499 20.6339 7.17339C20.2267 6.39687 19.6065 5.78607 18.7731 5.341C17.9398 4.88645 16.8887 4.65918 15.6197 4.65918H9.42649V30.0001H5.05149V0.90918H15.6197C17.8262 0.90918 19.668 1.30691 21.1453 2.10236C22.632 2.89782 23.7447 3.96789 24.4834 5.31259C25.2315 6.65729 25.6055 8.1535 25.6055 9.80123C25.6055 11.4679 25.2267 12.9688 24.4692 14.3041C23.721 15.6298 22.6036 16.681 21.1169 17.4575C19.6396 18.2245 17.8072 18.6081 15.6197 18.6081ZM15.8328 21.0512V24.787H0.605469V21.0512H15.8328Z" fill="white"/>
</g>
<defs>
<clipPath id="clip0_5_7295">
<rect width="26" height="30" fill="white"/>
</clipPath>
</defs>
</svg>
