<svg width="22" height="37" viewBox="0 0 22 37" fill="none" xmlns="http://www.w3.org/2000/svg">
<g clip-path="url(#clip0_5_7291)">
<path d="M9.77601 36.6364V0.272705H12.1055V36.6364H9.77601ZM17.0629 11.5511C16.9114 10.2064 16.2864 9.16475 15.1879 8.42612C14.0894 7.67801 12.7068 7.30396 11.0402 7.30396C9.84703 7.30396 8.81483 7.49335 7.94362 7.87214C7.07241 8.24146 6.39533 8.75282 5.91237 9.40623C5.43889 10.0502 5.20214 10.7841 5.20214 11.608C5.20214 12.2992 5.36313 12.8958 5.6851 13.3977C6.01654 13.8996 6.44741 14.321 6.97771 14.6619C7.51749 14.9934 8.09514 15.2727 8.71067 15.5C9.3262 15.7178 9.91805 15.8977 10.4862 16.0398L13.3271 16.7784C14.2551 17.0057 15.2068 17.3134 16.1822 17.7017C17.1576 18.09 18.062 18.6013 18.8953 19.2358C19.7286 19.8703 20.401 20.6562 20.9123 21.5938C21.4332 22.5312 21.6936 23.6534 21.6936 24.9602C21.6936 26.608 21.2674 28.071 20.4152 29.3494C19.5724 30.6278 18.346 31.6364 16.7362 32.375C15.1358 33.1136 13.1993 33.483 10.9265 33.483C8.74855 33.483 6.86408 33.1373 5.27317 32.446C3.68226 31.7547 2.43699 30.7746 1.53737 29.5057C0.637755 28.2273 0.140596 26.7121 0.0458984 24.9602H4.4493C4.53453 26.0114 4.87544 26.8873 5.47203 27.5881C6.07809 28.2794 6.84987 28.7955 7.78737 29.1364C8.73434 29.4678 9.77127 29.6335 10.8981 29.6335C12.1387 29.6335 13.2419 29.4394 14.2078 29.0511C15.1832 28.6534 15.9502 28.1042 16.5089 27.4034C17.0676 26.6932 17.347 25.8646 17.347 24.9176C17.347 24.0559 17.1008 23.3504 16.6084 22.8011C16.1254 22.2519 15.4673 21.7973 14.6339 21.4375C13.8101 21.0777 12.8773 20.7604 11.8356 20.4858L8.39817 19.5483C6.06862 18.9138 4.22203 17.9811 2.85839 16.75C1.50423 15.5189 0.827149 13.8902 0.827149 11.8636C0.827149 10.1875 1.28169 8.72441 2.19078 7.47441C3.09987 6.22441 4.33093 5.25377 5.88396 4.56248C7.43699 3.86172 9.18889 3.51134 11.1396 3.51134C13.1093 3.51134 14.847 3.85699 16.3527 4.54828C17.8678 5.23956 19.061 6.19127 19.9322 7.40339C20.8034 8.60604 21.258 9.98862 21.2959 11.5511H17.0629Z" fill="white"/>
</g>
<defs>
<clipPath id="clip0_5_7291">
<rect width="22" height="37" fill="white"/>
</clipPath>
</defs>
</svg>
